HIERARCHY
ROOT hips_JNT
{
	OFFSET 0.000000 0.000000 0.000000
	CHANNELS 6 Xposition Yposition Zposition Zrotation Xrotation Yrotation
	JOINT spine_JNT
	{
		OFFSET -0.000424 -2.543419 9.319810
		CHANNELS 6 Xposition Yposition Zposition Zrotation Xrotation Yrotation
		JOINT spine1_JNT
		{
			OFFSET 0.000000 0.000046 10.873099
			CHANNELS 6 Xposition Yposition Zposition Zrotation Xrotation Yrotation
			JOINT spine2_JNT
			{
				OFFSET 0.000000 5.951161 12.426399
				CHANNELS 6 Xposition Yposition Zposition Zrotation Xrotation Yrotation
				JOINT neck_JNT
				{
					OFFSET 0.000000 1.460481 13.979698
					CHANNELS 6 Xposition Yposition Zposition Zrotation Xrotation Yrotation
					JOINT head_JNT
					{
						OFFSET 0.000000 -2.091499 5.870201
						CHANNELS 6 Xposition Yposition Zposition Zrotation Xrotation Yrotation
						End Site
						{
							OFFSET 0.000000 0.000000 0.099998
						}
					}
				}
				JOINT l_shoulder_JNT
				{
					OFFSET 4.399140 1.485011 12.861000
					CHANNELS 6 Xposition Yposition Zposition Zrotation Xrotation Yrotation
					JOINT l_arm_JNT
					{
						OFFSET 8.757349 0.049052 -2.311981
						CHANNELS 6 Xposition Yposition Zposition Zrotation Xrotation Yrotation
						JOINT l_forearm_JNT
						{
							OFFSET 26.900103 -0.000013 -0.000046
							CHANNELS 6 Xposition Yposition Zposition Zrotation Xrotation Yrotation
							JOINT l_hand_JNT
							{
								OFFSET 23.014801 0.000004 -0.000046
								CHANNELS 6 Xposition Yposition Zposition Zrotation Xrotation Yrotation
								JOINT l_handThumb1_JNT
								{
									OFFSET 3.629997 -2.130000 -0.779999
									CHANNELS 6 Xposition Yposition Zposition Zrotation Xrotation Yrotation
									JOINT l_handThumb2_JNT
									{
										OFFSET 3.551140 -2.240060 -2.118370
										CHANNELS 6 Xposition Yposition Zposition Zrotation Xrotation Yrotation
										JOINT l_handThumb3_JNT
										{
											OFFSET 2.159111 -0.963467 -1.116310
											CHANNELS 6 Xposition Yposition Zposition Zrotation Xrotation Yrotation
											End Site
											{
												OFFSET 0.000000 0.000000 0.099998
											}
										}
									}
								}
								JOINT l_handIndex1_JNT
								{
									OFFSET 10.514900 -2.197570 -0.041019
									CHANNELS 6 Xposition Yposition Zposition Zrotation Xrotation Yrotation
									JOINT l_handIndex2_JNT
									{
										OFFSET 2.751831 0.139054 -0.102867
										CHANNELS 6 Xposition Yposition Zposition Zrotation Xrotation Yrotation
										JOINT l_handIndex3_JNT
										{
											OFFSET 2.353012 0.090487 -0.073399
											CHANNELS 6 Xposition Yposition Zposition Zrotation Xrotation Yrotation
											End Site
											{
												OFFSET 0.000000 0.000000 0.099998
											}
										}
									}
								}
								JOINT l_handMiddle1_JNT
								{
									OFFSET 10.067101 -0.059573 0.139202
									CHANNELS 6 Xposition Yposition Zposition Zrotation Xrotation Yrotation
									JOINT l_handMiddle2_JNT
									{
										OFFSET 3.909027 0.119066 -0.288403
										CHANNELS 6 Xposition Yposition Zposition Zrotation Xrotation Yrotation
										JOINT l_handMiddle3_JNT
										{
											OFFSET 2.328400 0.059440 -0.019108
											CHANNELS 6 Xposition Yposition Zposition Zrotation Xrotation Yrotation
											End Site
											{
												OFFSET 0.000000 0.000000 0.099998
											}
										}
									}
								}
								JOINT l_handRing1_JNT
								{
									OFFSET 9.468109 1.809830 0.132240
									CHANNELS 6 Xposition Yposition Zposition Zrotation Xrotation Yrotation
									JOINT l_handRing2_JNT
									{
										OFFSET 3.281532 0.033937 -0.224052
										CHANNELS 6 Xposition Yposition Zposition Zrotation Xrotation Yrotation
										JOINT l_handRing3_JNT
										{
											OFFSET 2.245003 0.008389 -0.070213
											CHANNELS 6 Xposition Yposition Zposition Zrotation Xrotation Yrotation
											End Site
											{
												OFFSET 0.000000 0.000000 0.099998
											}
										}
									}
								}
								JOINT l_handPinky1_JNT
								{
									OFFSET 8.490768 3.584150 -0.077770
									CHANNELS 6 Xposition Yposition Zposition Zrotation Xrotation Yrotation
									JOINT l_handPinky2_JNT
									{
										OFFSET 2.532173 0.017040 -0.073074
										CHANNELS 6 Xposition Yposition Zposition Zrotation Xrotation Yrotation
										JOINT l_handPinky3_JNT
										{
											OFFSET 1.951210 -0.017009 0.025116
											CHANNELS 6 Xposition Yposition Zposition Zrotation Xrotation Yrotation
											End Site
											{
												OFFSET 0.000000 0.000000 0.099998
											}
										}
									}
								}
							}
						}
					}
				}
				JOINT r_shoulder_JNT
				{
					OFFSET -4.397820 1.485011 12.860600
					CHANNELS 6 Xposition Yposition Zposition Zrotation Xrotation Yrotation
					JOINT r_arm_JNT
					{
						OFFSET -8.757320 0.049050 -2.312000
						CHANNELS 6 Xposition Yposition Zposition Zrotation Xrotation Yrotation
						JOINT r_forearm_JNT
						{
							OFFSET -26.900000 -0.000010 0.000000
							CHANNELS 6 Xposition Yposition Zposition Zrotation Xrotation Yrotation
							JOINT r_hand_JNT
							{
								OFFSET -23.014900 0.000000 0.000000
								CHANNELS 6 Xposition Yposition Zposition Zrotation Xrotation Yrotation
								JOINT r_handThumb1_JNT
								{
									OFFSET -3.629997 -2.130000 -0.779999
									CHANNELS 6 Xposition Yposition Zposition Zrotation Xrotation Yrotation
									JOINT r_handThumb2_JNT
									{
										OFFSET -3.551201 -2.240060 -2.118000
										CHANNELS 6 Xposition Yposition Zposition Zrotation Xrotation Yrotation
										JOINT r_handThumb3_JNT
										{
											OFFSET -2.159103 -0.963467 -1.116001
											CHANNELS 6 Xposition Yposition Zposition Zrotation Xrotation Yrotation
											End Site
											{
												OFFSET 0.000000 0.000000 0.099998
											}
										}
									}
								}
								JOINT r_handIndex1_JNT
								{
									OFFSET -10.514900 -2.197560 -0.040997
									CHANNELS 6 Xposition Yposition Zposition Zrotation Xrotation Yrotation
									JOINT r_handIndex2_JNT
									{
										OFFSET -2.751801 0.139050 -0.102997
										CHANNELS 6 Xposition Yposition Zposition Zrotation Xrotation Yrotation
										JOINT r_handIndex3_JNT
										{
											OFFSET -2.352997 0.090490 -0.073006
											CHANNELS 6 Xposition Yposition Zposition Zrotation Xrotation Yrotation
											End Site
											{
												OFFSET 0.000000 0.000000 0.099998
											}
										}
									}
								}
								JOINT r_handMiddle1_JNT
								{
									OFFSET -10.067101 -0.059570 0.139999
									CHANNELS 6 Xposition Yposition Zposition Zrotation Xrotation Yrotation
									JOINT r_handMiddle2_JNT
									{
										OFFSET -3.909103 0.119070 -0.288998
										CHANNELS 6 Xposition Yposition Zposition Zrotation Xrotation Yrotation
										JOINT r_handMiddle3_JNT
										{
											OFFSET -2.328400 0.059440 -0.019001
											CHANNELS 6 Xposition Yposition Zposition Zrotation Xrotation Yrotation
											End Site
											{
												OFFSET 0.000000 0.000000 0.099998
											}
										}
									}
								}
								JOINT r_handRing1_JNT
								{
									OFFSET -9.468102 1.809830 0.133003
									CHANNELS 6 Xposition Yposition Zposition Zrotation Xrotation Yrotation
									JOINT r_handRing2_JNT
									{
										OFFSET -3.281601 0.033939 -0.224995
										CHANNELS 6 Xposition Yposition Zposition Zrotation Xrotation Yrotation
										JOINT r_handRing3_JNT
										{
											OFFSET -2.245003 0.008390 -0.070000
											CHANNELS 6 Xposition Yposition Zposition Zrotation Xrotation Yrotation
											End Site
											{
												OFFSET 0.000000 0.000000 0.099998
											}
										}
									}
								}
								JOINT r_handPinky1_JNT
								{
									OFFSET -8.490799 3.584149 -0.076996
									CHANNELS 6 Xposition Yposition Zposition Zrotation Xrotation Yrotation
									JOINT r_handPinky2_JNT
									{
										OFFSET -2.532204 0.017040 -0.074005
										CHANNELS 6 Xposition Yposition Zposition Zrotation Xrotation Yrotation
										JOINT r_handPinky3_JNT
										{
											OFFSET -1.951202 -0.017010 0.026001
											CHANNELS 6 Xposition Yposition Zposition Zrotation Xrotation Yrotation
											End Site
											{
												OFFSET 0.000000 0.000000 0.099998
											}
										}
									}
								}
							}
						}
					}
				}
			}
		}
	}
	JOINT l_upleg_JNT
	{
		OFFSET 10.061400 0.706233 -5.185750
		CHANNELS 6 Xposition Yposition Zposition Zrotation Xrotation Yrotation
		JOINT l_leg_JNT
		{
			OFFSET -0.348572 0.819165 -45.582401
			CHANNELS 6 Xposition Yposition Zposition Zrotation Xrotation Yrotation
			JOINT l_foot_JNT
			{
				OFFSET 0.349145 1.708487 -42.332497
				CHANNELS 6 Xposition Yposition Zposition Zrotation Xrotation Yrotation
				JOINT l_toebase_JNT
				{
					OFFSET 0.070271 -12.888700 -8.126663
					CHANNELS 6 Xposition Yposition Zposition Zrotation Xrotation Yrotation
					End Site
					{
						OFFSET 0.000000 0.000000 0.099998
					}
				}
			}
		}
	}
	JOINT r_upleg_JNT
	{
		OFFSET -10.061000 0.706233 -5.185770
		CHANNELS 6 Xposition Yposition Zposition Zrotation Xrotation Yrotation
		JOINT r_leg_JNT
		{
			OFFSET 0.348580 0.819162 -45.582405
			CHANNELS 6 Xposition Yposition Zposition Zrotation Xrotation Yrotation
			JOINT r_foot_JNT
			{
				OFFSET -0.349180 1.708487 -42.332504
				CHANNELS 6 Xposition Yposition Zposition Zrotation Xrotation Yrotation
				JOINT r_toebase_JNT
				{
					OFFSET -0.070200 -12.888700 -8.126663
					CHANNELS 6 Xposition Yposition Zposition Zrotation Xrotation Yrotation
					End Site
					{
						OFFSET 0.000000 0.000000 0.099998
					}
				}
			}
		}
	}
}
MOTION
Frames: 4
Frame Time: 0.041667
-0.049463 0.029263 77.904327 16.041039 1.387624 4.628862 -0.000424 -2.543416 9.319806 0.000052 -0.012603 0.250693 -0.000001 0.000046 10.873101 -0.000003 0.000003 0.000000 0.000000 5.951158 12.426396 4.642640 -0.007064 -2.878266 0.000000 1.460480 13.979693 -3.604199 8.792818 -5.044706 0.000001 -2.091503 5.870201 7.490388 39.108796 -17.586494 4.399139 1.485010 12.861000 -0.000001 -0.000001 -0.000000 8.757345 0.049054 -2.311984 -42.398164 0.837505 -23.812159 26.900105 -0.000007 -0.000047 -84.404261 38.706474 -42.346008 23.014807 -0.000003 -0.000039 89.999989 -0.000030 60.966487 3.629993 -2.130000 -0.779998 -0.000007 -0.000001 -0.000001 3.551137 -2.240062 -2.118376 0.000005 -0.000002 -0.000002 2.159105 -0.963452 -1.116328 -0.000001 -0.000000 -0.000001 10.514902 -2.197567 -0.041026 -0.000002 -0.000002 -0.000001 2.751829 0.139058 -0.102854 0.000006 -0.000001 -0.000002 2.353013 0.090487 -0.073382 -0.000002 -0.000001 -0.000001 10.067101 -0.059572 0.139196 -0.000002 -0.000000 0.000002 3.909025 0.119053 -0.288412 -0.000002 0.000001 0.000001 2.328400 0.059443 -0.019097 -0.000001 0.000004 0.000001 9.468110 1.809833 0.132243 -0.000005 -0.000000 0.000001 3.281525 0.033940 -0.224054 -0.000003 0.000003 -0.000002 2.245003 0.008391 -0.070216 0.000002 -0.000003 -0.000001 8.490769 3.584154 -0.077791 -0.000004 -0.000001 0.000001 2.532171 0.017032 -0.073076 0.000000 -0.000000 0.000001 1.951216 -0.017018 0.025115 0.000004 0.000001 0.000001 -4.397821 1.485010 12.860603 -0.000000 -0.000000 0.000003 -8.757318 0.049050 -2.312003 103.951149 -27.608111 -14.481167 -26.899996 -0.000003 -0.000014 48.078183 17.485245 38.045260 -23.014894 -0.000005 -0.000004 -90.000037 0.000008 85.292827 -3.629993 -2.129991 -0.780003 -0.000002 -0.000002 -0.000000 -3.551194 -2.240046 -2.118004 0.000004 -0.000003 -0.000003 -2.159097 -0.963471 -1.116008 0.000000 0.000001 -0.000003 -10.514886 -2.197560 -0.041000 -0.000002 0.000002 0.000000 -2.751807 0.139052 -0.102999 0.000007 -0.000000 0.000001 -2.352975 0.090491 -0.073010 0.000004 -0.000000 -0.000000 -10.067102 -0.059570 0.140000 -0.000004 0.000001 0.000000 -3.909103 0.119069 -0.289005 0.000002 0.000000 -0.000002 -2.328384 0.059439 -0.019004 -0.000002 0.000001 0.000001 -9.468095 1.809839 0.133000 -0.000000 0.000001 0.000000 -3.281616 0.033932 -0.224986 -0.000001 -0.000000 0.000001 -2.244996 0.008386 -0.070002 0.000001 -0.000001 0.000001 -8.490792 3.584144 -0.076994 -0.000002 0.000000 -0.000002 -2.532188 0.017047 -0.074018 0.000002 0.000001 -0.000001 -1.951196 -0.017013 0.026008 0.000003 -0.000002 0.000002 10.061400 0.706234 -5.185748 -21.174560 -47.647181 -26.626594 -0.348575 0.819166 -45.582397 95.251230 71.047744 -95.868385 0.349143 1.708493 -42.332497 -9.750733 -2.136415 -8.675399 0.070274 -12.888708 -8.126667 -11.555405 -36.225858 -3.791421 -10.060999 0.706235 -5.185771 9.942315 -40.117314 29.830199 0.348577 0.819168 -45.582394 -4.200282 75.145489 3.631312 -0.349178 1.708491 -42.332489 -0.822013 4.503356 2.517596 -0.070198 -12.888708 -8.126652 10.663313 -30.940330 2.958836 
-0.049463 0.029263 77.904327 16.041039 1.387624 4.628862 -0.000424 -2.543416 9.319806 0.000052 -0.012603 0.250693 -0.000001 0.000046 10.873101 -0.000003 0.000003 0.000000 0.000000 5.951158 12.426396 4.642640 -0.007064 -2.878266 0.000000 1.460480 13.979693 -3.604199 8.792818 -5.044706 0.000001 -2.091503 5.870201 7.490388 39.108796 -17.586494 4.399139 1.485010 12.861000 -0.000001 -0.000001 -0.000000 8.757345 0.049054 -2.311984 -42.398164 0.837505 -23.812159 26.900105 -0.000007 -0.000047 -84.404261 38.706474 -42.346008 23.014809 -0.000007 -0.000040 89.999989 -0.000020 60.966569 3.629993 -2.130002 -0.780017 -0.000002 0.000006 -0.000001 3.551146 -2.240062 -2.118368 0.000007 0.000001 -0.000002 2.159111 -0.963470 -1.116301 -0.000001 0.000001 0.000002 10.514909 -2.197572 -0.041033 0.000001 0.000002 0.000001 2.751830 0.139059 -0.102880 0.000004 0.000005 -0.000001 2.353012 0.090488 -0.073384 -0.000000 -0.000002 0.000000 10.067101 -0.059582 0.139200 -0.000003 0.000001 0.000002 3.909019 0.119062 -0.288391 -0.000001 -0.000003 -0.000000 2.328400 0.059440 -0.019083 -0.000002 0.000002 0.000002 9.468118 1.809824 0.132229 0.000000 0.000001 0.000000 3.281524 0.033939 -0.224053 -0.000001 0.000005 -0.000002 2.245002 0.008386 -0.070196 0.000003 -0.000003 -0.000002 8.490769 3.584143 -0.077775 -0.000001 0.000001 0.000001 2.532172 0.017041 -0.073104 -0.000001 0.000002 0.000002 1.951218 -0.017007 0.025130 -0.000002 -0.000000 0.000001 -4.397821 1.485010 12.860603 -0.000000 -0.000000 0.000003 -8.757318 0.049050 -2.312003 103.951149 -27.608111 -14.481167 -26.899996 -0.000003 -0.000014 48.078183 17.485245 38.045260 -23.014896 0.000004 -0.000010 -90.000030 0.000002 85.292622 -3.629973 -2.129984 -0.779999 -0.000002 0.000000 -0.000004 -3.551201 -2.240065 -2.117998 0.000002 -0.000003 -0.000002 -2.159116 -0.963463 -1.116009 -0.000005 -0.000000 -0.000000 -10.514869 -2.197549 -0.041000 0.000001 -0.000000 0.000000 -2.751817 0.139062 -0.103002 -0.000003 0.000001 -0.000001 -2.353005 0.090492 -0.073006 0.000000 -0.000001 -0.000000 -10.067101 -0.059566 0.140005 0.000001 0.000000 0.000001 -3.909126 0.119073 -0.289002 -0.000002 0.000001 -0.000001 -2.328391 0.059454 -0.018998 -0.000001 0.000001 -0.000001 -9.468101 1.809844 0.133007 0.000000 -0.000001 0.000000 -3.281609 0.033943 -0.224991 -0.000002 0.000002 -0.000000 -2.244995 0.008393 -0.070000 0.000001 -0.000000 -0.000001 -8.490775 3.584155 -0.076996 0.000004 -0.000001 0.000000 -2.532189 0.017043 -0.074013 0.000001 0.000001 -0.000000 -1.951187 -0.017013 0.026002 0.000000 -0.000001 0.000001 10.061400 0.706234 -5.185748 -21.174560 -47.647181 -26.626594 -0.348575 0.819166 -45.582397 95.251230 71.047744 -95.868385 0.349146 1.708492 -42.332500 -9.750735 -2.136413 -8.675388 0.070272 -12.888710 -8.126667 -11.555403 -36.225858 -3.791421 -10.060999 0.706235 -5.185771 9.942315 -40.117314 29.830199 0.348577 0.819168 -45.582394 -4.200282 75.145489 3.631312 -0.349178 1.708491 -42.332489 -0.822013 4.503356 2.517596 -0.070198 -12.888708 -8.126652 10.663313 -30.940330 2.958836 
-0.193617 0.016640 77.902527 16.252830 1.158748 4.419126 -0.000424 -2.543423 9.319811 0.000078 -0.013000 0.356945 -0.000001 0.000047 10.873097 0.000000 0.000002 -0.000000 -0.000001 5.951165 12.426391 4.921060 -0.006348 -2.770452 0.000000 1.460479 13.979699 -3.427701 8.423920 -4.787003 -0.000002 -2.091502 5.870191 7.911376 39.249071 -18.504781 4.399138 1.485010 12.861004 0.000000 -0.000000 -0.000003 8.757343 0.049054 -2.311977 -45.879354 -5.115559 -23.951791 26.900099 -0.000009 -0.000058 -94.123476 32.591542 -30.435142 23.014807 0.000016 -0.000046 89.999989 -0.000001 57.424611 3.629989 -2.130002 -0.780027 0.000002 0.000000 0.000001 3.551137 -2.240056 -2.118368 0.000003 -0.000002 0.000002 2.159111 -0.963467 -1.116312 0.000004 0.000003 0.000002 10.514908 -2.197567 -0.041035 0.000002 -0.000000 0.000000 2.751840 0.139059 -0.102845 -0.000001 -0.000002 0.000000 2.353011 0.090494 -0.073385 0.000002 0.000001 -0.000002 10.067101 -0.059577 0.139198 -0.000002 -0.000004 0.000000 3.909020 0.119067 -0.288374 0.000001 -0.000002 -0.000001 2.328399 0.059443 -0.019100 0.000001 -0.000002 -0.000001 9.468118 1.809831 0.132224 -0.000004 -0.000001 0.000001 3.281518 0.033935 -0.224050 -0.000004 -0.000001 0.000001 2.245001 0.008388 -0.070199 -0.000001 -0.000000 0.000000 8.490768 3.584145 -0.077790 -0.000001 -0.000002 0.000000 2.532180 0.017040 -0.073076 0.000003 -0.000001 0.000001 1.951224 -0.017013 0.025102 0.000002 0.000001 0.000002 -4.397821 1.485009 12.860596 -0.000001 -0.000001 0.000002 -8.757316 0.049051 -2.312003 100.559892 -35.311764 -16.134567 -26.899992 -0.000004 -0.000002 55.128660 15.935712 30.020495 -23.014910 -0.000011 -0.000004 -90.000037 0.000199 91.401817 -3.629990 -2.129994 -0.779997 -0.000004 0.000002 -0.000002 -3.551194 -2.240064 -2.117999 -0.000003 -0.000006 0.000001 -2.159087 -0.963462 -1.116006 0.000001 0.000001 -0.000001 -10.514899 -2.197570 -0.040989 -0.000004 -0.000001 -0.000000 -2.751793 0.139040 -0.103000 0.000000 -0.000001 0.000001 -2.352981 0.090491 -0.073008 -0.000000 0.000000 0.000001 -10.067092 -0.059569 0.140005 -0.000002 -0.000001 0.000002 -3.909119 0.119063 -0.288999 -0.000004 0.000000 -0.000001 -2.328385 0.059428 -0.018990 -0.000001 -0.000003 -0.000000 -9.468107 1.809828 0.133006 -0.000003 -0.000002 -0.000001 -3.281607 0.033954 -0.224990 -0.000002 -0.000000 0.000001 -2.244987 0.008383 -0.070007 0.000001 0.000000 0.000000 -8.490784 3.584147 -0.076991 -0.000003 -0.000002 0.000001 -2.532211 0.017042 -0.074012 -0.000002 -0.000001 0.000001 -1.951217 -0.016993 0.025998 -0.000001 -0.000001 0.000000 10.061401 0.706228 -5.185749 -24.221857 -46.632700 -27.350726 -0.348576 0.819165 -45.582378 97.443597 74.536700 -97.881385 0.349151 1.708494 -42.332500 -8.449717 -1.085797 -6.634241 0.070268 -12.888707 -8.126657 -11.459362 -38.288773 -3.989901 -10.061001 0.706229 -5.185764 10.018415 -39.958290 30.072773 0.348579 0.819166 -45.582397 -2.950402 75.424522 2.412924 -0.349175 1.708488 -42.332500 -1.035639 4.704455 2.351304 -0.070207 -12.888708 -8.126654 10.745534 -31.295633 3.017802 
-0.411707 -0.059956 77.869133 16.445931 0.886807 4.081706 -0.000425 -2.543421 9.319811 0.000119 -0.011447 0.595007 0.000001 0.000046 10.873111 0.000000 0.000003 -0.000000 0.000000 5.951164 12.426399 5.096182 -0.004732 -2.706442 0.000000 1.460482 13.979692 -2.932879 7.909176 -4.083504 -0.000002 -2.091494 5.870194 8.713487 39.258083 -20.346273 4.399138 1.485012 12.861012 0.000000 -0.000000 -0.000004 8.757348 0.049056 -2.311984 -48.748809 -9.879169 -24.050192 26.900112 -0.000013 -0.000043 -99.480688 26.498040 -22.552834 23.014807 0.000013 -0.000035 89.999982 -0.000008 54.624441 3.630000 -2.130004 -0.779998 0.000001 0.000002 0.000003 3.551137 -2.240066 -2.118349 0.000009 -0.000001 0.000002 2.159110 -0.963481 -1.116296 0.000003 -0.000003 0.000001 10.514908 -2.197573 -0.041013 0.000002 -0.000003 0.000001 2.751832 0.139051 -0.102871 0.000000 0.000002 -0.000000 2.353012 0.090489 -0.073398 0.000001 0.000001 -0.000000 10.067116 -0.059573 0.139196 0.000002 -0.000001 0.000002 3.909019 0.119074 -0.288417 -0.000003 0.000001 -0.000001 2.328392 0.059449 -0.019116 -0.000002 0.000002 0.000000 9.468108 1.809832 0.132240 0.000002 -0.000001 0.000003 3.281518 0.033935 -0.224064 -0.000002 0.000001 0.000001 2.245001 0.008391 -0.070218 0.000004 -0.000001 0.000001 8.490769 3.584147 -0.077776 -0.000001 -0.000002 0.000001 2.532181 0.017035 -0.073100 -0.000003 0.000002 -0.000001 1.951218 -0.017010 0.025121 0.000001 -0.000002 0.000001 -4.397821 1.485011 12.860603 0.000001 0.000000 0.000001 -8.757320 0.049048 -2.311996 97.139258 -41.662972 -18.379563 -26.899998 -0.000009 0.000000 60.316096 13.836047 23.590280 -23.014906 -0.000004 -0.000002 -90.000023 -0.000012 96.605130 -3.629961 -2.129981 -0.780005 0.000003 0.000001 -0.000002 -3.551216 -2.240070 -2.117998 -0.000004 -0.000005 -0.000002 -2.159116 -0.963476 -1.116007 -0.000006 -0.000002 -0.000004 -10.514870 -2.197552 -0.040996 0.000003 -0.000001 0.000000 -2.751801 0.139041 -0.102996 0.000004 0.000000 0.000000 -2.353005 0.090488 -0.073014 -0.000004 0.000001 -0.000000 -10.067083 -0.059571 0.140004 0.000003 -0.000001 0.000000 -3.909110 0.119052 -0.288998 0.000001 0.000002 -0.000000 -2.328400 0.059426 -0.018994 -0.000004 -0.000002 -0.000000 -9.468093 1.809828 0.133006 0.000005 -0.000000 -0.000001 -3.281624 0.033940 -0.224992 0.000001 0.000000 -0.000001 -2.245002 0.008393 -0.069994 0.000002 -0.000000 0.000002 -8.490768 3.584156 -0.076991 0.000007 -0.000001 0.000001 -2.532213 0.017030 -0.074015 -0.000004 0.000001 -0.000002 -1.951194 -0.017017 0.026003 0.000001 -0.000001 0.000002 10.061400 0.706230 -5.185748 -26.526918 -45.675606 -27.691308 -0.348565 0.819156 -45.582401 99.714505 77.380449 -99.987733 0.349149 1.708492 -42.332485 -7.523175 -0.376914 -4.835117 0.070273 -12.888716 -8.126667 -11.240830 -39.918976 -4.093779 -10.061002 0.706231 -5.185766 10.101393 -39.853727 30.420590 0.348581 0.819173 -45.582397 -2.272648 75.872432 1.753775 -0.349179 1.708488 -42.332512 -1.231414 4.821793 2.327901 -0.070205 -12.888709 -8.126653 10.842087 -31.590137 3.075126 
